<?xml version="1.0" encoding="UTF-8"?>
<svg width="1200pt" height="1200pt" version="1.1" viewBox="0 0 1200 1200" xmlns="http://www.w3.org/2000/svg">
 <path d="m1200 600c0 214.36-114.36 412.44-300 519.62-185.64 107.18-414.36 107.18-600 0-185.64-107.18-300-305.26-300-519.62s114.36-412.44 300-519.62c185.64-107.18 414.36-107.18 600 0 185.64 107.18 300 305.26 300 519.62" fill="#fcf5e3"/>
 <path d="m292.99 470v336.35c0 22.082 18.008 40.09 40.09 40.09l533.84-0.003906c22.082 0 40.09-18.008 40.09-40.09v-336.35zm437.84 61.285v15.883h32.059c4.8984 0 8.8555 3.957 8.8555 8.8555v83.66c0 4.3672-3.1875 8.0898-7.5 8.7383l-177.89 27.277v12.633h32.473c4.8984 0 8.8555 3.957 8.8555 8.8555v78.758c0 22.848-18.598 41.504-41.504 41.504h-10.391c-22.906 0-41.504-18.598-41.504-41.504v-78.758c0-4.8984 3.957-8.8555 8.8555-8.8555h25.504v-20.25c0-4.3672 3.1875-8.0898 7.5-8.7383l177.89-27.277v-67.188h-23.203v15.883c0 16.117-13.105 29.227-29.227 29.227l-248.26-0.003906c-16.117 0-29.227-13.105-29.227-29.227v-49.477c0-16.117 13.105-29.227 29.227-29.227h248.27c16.117 0 29.227 13.105 29.227 29.227z" fill="#647a82"/>
 <path d="m565.64 353.57h-237.93c-18.715 0-34.715 15.172-34.715 34.656v64.059h225.83z" fill="#647a82"/>
 <path d="m872.3 353.57h-287.05l-46.82 98.715h368.59v-64.059c0-19.188-15.586-34.656-34.715-34.656zm-9.4453 58.215h-243.66c-11.691 0-11.691-17.711 0-17.711h243.66c11.691 0 11.691 17.711 0 17.711z" fill="#647a82"/>
 <path d="m453.35 519.77h248.27c6.3594 0 11.512 6.3594 11.512 11.512v49.535c0 6.3594-5.1562 11.512-11.512 11.512h-248.27c-6.3594 0-11.512-6.3594-11.512-11.512v-49.535c0-6.3594 5.1562-11.512 11.512-11.512z" fill="#647a82"/>
 <path d="m551.94 706.04v69.902c0 13.105 10.688 23.793 23.793 23.793h10.391c13.105 0 23.793-10.688 23.793-23.793v-69.902z" fill="#647a82"/>
</svg>
